<?xml version="1.0" encoding="UTF-8" standalone="no" ?>
<!DOCTYPE svg PUBLIC "-//W3C//DTD SVG 1.1//EN" "http://www.w3.org/Graphics/SVG/1.1/DTD/svg11.dtd">
<svg width="302mm" xmlns="http://www.w3.org/2000/svg" height="243mm" version="1.1" viewBox="0 0 1143 921" xmlns:xlink="http://www.w3.org/1999/xlink">
   <a target="_parent" xlink:href="Full76.htm#16">
      <polyline fill="none" points="455,128 455,194" stroke="#800000" stroke-width="1"/>
      <polygon fill="#800000" points="455,194 452,181 458,181" stroke="#800000" stroke-width="1" stroke-linejoin="miter"/>
      <text x="455" y="164" fill="#000000" font-size="10" font-family="'Arial Unicode MS','Arial'" text-anchor="middle">经理-员工</text>
   </a>
   <path d="M436,68 L436,117 A4,4 0 0,0 440,121 L445,121" fill="none" stroke="#800000" stroke-width="1"/>
   <a target="_parent" xlink:href="Full75.htm#12">
      <polyline fill="none" points="657,128 657,194" stroke="#800000" stroke-width="1"/>
      <polygon fill="#800000" points="657,194 654,181 660,181" stroke="#800000" stroke-width="1" stroke-linejoin="miter"/>
      <text x="657" y="164" fill="#000000" font-size="10" font-family="'Arial Unicode MS','Arial'" text-anchor="middle">普通员工-员工</text>
   </a>
   <path d="M798,68 L798,114 A8,8 0 0,1 790,122 L667,122" fill="none" stroke="#800000" stroke-width="1"/>
   <a target="_parent" xlink:href="Full80.htm#10">
      <polyline fill="none" points="652,689 788,689" stroke="#800040" stroke-width="1"/>
      <ellipse cx="662" cy="688" rx="3" ry="3" fill="#ffffff" stroke="#800040" stroke-width="1"/>
      <polyline fill="none" points="802,698 775,689 802,679 802,698" stroke="#800040" stroke-width="1"/>
      <ellipse cx="771" cy="688" rx="3" ry="3" fill="#ffffff" stroke="#800040" stroke-width="1"/>
      <text x="720" y="685" fill="#000000" font-size="10" font-family="'Arial Unicode MS','新宋体'" text-anchor="middle">开户</text>
   </a>
   <a target="_parent" xlink:href="Full73.htm#4">
      <polyline fill="none" points="796,780 796,712" stroke="#800000" stroke-width="1"/>
      <polygon fill="#800000" points="796,712 799,726 793,726" stroke="#800000" stroke-width="1" stroke-linejoin="miter"/>
      <text x="796" y="749" fill="#000000" font-size="10" font-family="'Arial Unicode MS','Arial'" text-anchor="middle">储蓄账户-账户</text>
   </a>
   <polyline fill="none" points="796,852 796,793" stroke="#800000" stroke-width="1"/>
   <a target="_parent" xlink:href="Full74.htm#8">
      <polyline fill="none" points="1037,765 1037,712" stroke="#800000" stroke-width="1"/>
      <polygon fill="#800000" points="1037,712 1040,726 1034,726" stroke="#800000" stroke-width="1" stroke-linejoin="miter"/>
      <text x="1037" y="741" fill="#000000" font-size="10" font-family="'Arial Unicode MS','Arial'" text-anchor="middle">支票账户-账户</text>
   </a>
   <path d="M1045,851 L1045,819 A4,4 0 0,0 1041,815 L1041,815 A4,4 0 0,1 1037,811 L1037,778" fill="none" stroke="#800000" stroke-width="1"/>
   <a target="_parent" xlink:href="Full81.htm#13">
      <polyline fill="none" points="862,513 862,638" stroke="#800040" stroke-width="1"/>
      <polyline fill="none" points="871,500 862,527 853,500 871,500" stroke="#800040" stroke-width="1"/>
      <ellipse cx="862" cy="530" rx="3" ry="3" fill="#ffffff" stroke="#800040" stroke-width="1"/>
      <polyline fill="none" points="853,651 862,624 871,651 853,651" stroke="#800040" stroke-width="1"/>
      <ellipse cx="862" cy="620" rx="3" ry="3" fill="#ffffff" stroke="#800040" stroke-width="1"/>
      <text x="862" y="578" fill="#000000" font-size="10" font-family="'Arial Unicode MS','新宋体'" text-anchor="middle">拥有账户</text>
   </a>
   <a target="_parent" xlink:href="Full83.htm#19">
      <polyline fill="none" points="516,681 516,294" stroke="#800040" stroke-width="1"/>
      <ellipse cx="516" cy="670" rx="3" ry="3" fill="#ffffff" stroke="#800040" stroke-width="1"/>
      <polyline fill="none" points="525,280 516,307 507,280 525,280" stroke="#800040" stroke-width="1"/>
      <ellipse cx="516" cy="310" rx="3" ry="3" fill="#ffffff" stroke="#800040" stroke-width="1"/>
      <text x="516" y="490" fill="#000000" font-size="10" font-family="'Arial Unicode MS','新宋体'" text-anchor="middle">雇佣</text>
   </a>
   <a target="_parent" xlink:href="Full82.htm#16">
      <polyline fill="none" points="135,469 135,626" stroke="#800040" stroke-width="1"/>
      <polyline fill="none" points="129,482 140,482" stroke="#800040" stroke-width="1"/>
      <polygon fill="#ffffff" points="128,612 135,599 141,612" stroke="#800040" stroke-width="1" stroke-linejoin="miter"/>
      <polyline fill="none" points="132,626 132,612" stroke="#800040" stroke-width="1"/>
      <polyline fill="none" points="138,626 138,612" stroke="#800040" stroke-width="1"/>
      <ellipse cx="134" cy="595" rx="3" ry="3" fill="#ffffff" stroke="#800040" stroke-width="1"/>
      <text x="135" y="550" fill="#000000" font-size="10" font-family="'Arial Unicode MS','新宋体'" text-anchor="middle">贷款-支付</text>
   </a>
   <a target="_parent" xlink:href="Full78.htm#4">
      <path d="M436,681 L436,411 A8,8 0 0,0 428,403 L249,403" fill="none" stroke="#800040" stroke-width="1"/>
      <ellipse cx="436" cy="670" rx="3" ry="3" fill="#ffffff" stroke="#800040" stroke-width="1"/>
      <polyline fill="none" points="236,394 262,403 236,413 236,394" stroke="#800040" stroke-width="1"/>
      <ellipse cx="265" cy="403" rx="3" ry="3" fill="#ffffff" stroke="#800040" stroke-width="1"/>
      <text x="436" y="406" fill="#000000" font-size="10" font-family="'Arial Unicode MS','新宋体'" text-anchor="middle">发放贷款</text>
   </a>
   <a target="_parent" xlink:href="Full79.htm#7">
      <polyline fill="none" points="614,434 521,434" stroke="#800040" stroke-width="1"/>
      <polyline fill="none" points="511,434 442,434" stroke="#800040" stroke-width="1"/>
      <path d="M521,434 A5,5 0 0,0 516,429" fill="none" stroke="#800040" stroke-width="1"/>
      <line x1="516" x2="516" y1="429" y2="429" stroke="#800040" stroke-width="1"/>
      <path d="M516,429 A5,5 0 0,0 511,434" fill="none" stroke="#800040" stroke-width="1"/>
      <polyline fill="none" points="431,434 249,434" stroke="#800040" stroke-width="1"/>
      <path d="M442,434 A5,5 0 0,0 436,429" fill="none" stroke="#800040" stroke-width="1"/>
      <line x1="436" x2="436" y1="429" y2="429" stroke="#800040" stroke-width="1"/>
      <path d="M436,429 A5,5 0 0,0 431,434" fill="none" stroke="#800040" stroke-width="1"/>
      <polyline fill="none" points="236,425 262,434 236,444 236,425" stroke="#800040" stroke-width="1"/>
      <ellipse cx="265" cy="434" rx="3" ry="3" fill="#ffffff" stroke="#800040" stroke-width="1"/>
      <polyline fill="none" points="627,444 601,434 627,425 627,444" stroke="#800040" stroke-width="1"/>
      <ellipse cx="597" cy="434" rx="3" ry="3" fill="#ffffff" stroke="#800040" stroke-width="1"/>
      <text x="431" y="430" fill="#000000" font-size="10" font-family="'Arial Unicode MS','新宋体'" text-anchor="middle">客户贷款</text>
   </a>
   <path d="M735,244 L821,244 A8,8 0 0,1 829,252 L829,336" fill="none" stroke="#8080ff" stroke-width="1"/>
   <text x="762" y="241" fill="#000000" font-size="10" font-family="'Arial Unicode MS','新宋体'" text-anchor="middle">0,n</text>
   <path d="M853,426 L853,423 L837,423 A8,8 0 0,1 829,415 L829,376" fill="none" stroke="#8080ff" stroke-width="1"/>
   <text x="842" y="407" fill="#000000" font-size="10" font-family="'Arial Unicode MS','新宋体'" text-anchor="middle">0,n</text>
   <a target="_parent" xlink:href="Full84.htm#22">
      <polyline fill="none" points="519,42 685,42" stroke="#800040" stroke-width="1"/>
      <ellipse cx="529" cy="41" rx="3" ry="3" fill="#ffffff" stroke="#800040" stroke-width="1"/>
      <polyline fill="none" points="698,51 672,42 698,32 698,51" stroke="#800040" stroke-width="1"/>
      <ellipse cx="668" cy="41" rx="3" ry="3" fill="#ffffff" stroke="#800040" stroke-width="1"/>
      <text x="601" y="37" fill="#000000" font-size="10" font-family="'Arial Unicode MS','新宋体'" text-anchor="middle">领导</text>
   </a>
   <a target="_parent" xlink:href="Full39.htm#15">
      <defs>
         <linearGradient id="Gradient1" x1="0%" x2="100%" y1="0%" y2="100%" gradientUnits="objectBoundingBox">
            <stop offset="5%" stop-color="#ffffff"/>
            <stop offset="95%" stop-color="#e9ca83"/>
         </linearGradient>
      </defs>
      <rect x="440" y="194" fill="url(#Gradient1)" width="295" height="100" stroke="#808040" stroke-width="1"/>
      <text x="587" y="205" fill="#000000" font-size="10" font-family="'Arial Unicode MS','Arial'" text-anchor="middle">员工</text>
      <line x1="440" x2="735" y1="211" y2="211" stroke="#808040" stroke-width="1"/>
      <text x="445" y="221" fill="#000000" font-size="10" font-family="'Arial Unicode MS','Arial'" text-anchor="start" text-decoration="underline">员工身份证号</text>
      <text x="445" y="234" fill="#000000" font-size="10" font-family="'Arial Unicode MS','Arial'" text-anchor="start">手机号</text>
      <text x="445" y="247" fill="#000000" font-size="10" font-family="'Arial Unicode MS','Arial'" text-anchor="start">家庭地址</text>
      <text x="445" y="260" fill="#000000" font-size="10" font-family="'Arial Unicode MS','Arial'" text-anchor="start">入职时间</text>
      <text x="445" y="273" fill="#000000" font-size="10" font-family="'Arial Unicode MS','Arial'" text-anchor="start">员工姓名</text>
      <text x="513" y="221" fill="#000000" font-size="10" font-family="'Arial Unicode MS','Arial'" text-anchor="start" text-decoration="underline">&lt;pi&gt;</text>
      <text x="542" y="221" fill="#000000" font-size="10" font-family="'Arial Unicode MS','Arial'" text-anchor="start" text-decoration="underline">Variable characters (20)</text>
      <text x="542" y="234" fill="#000000" font-size="10" font-family="'Arial Unicode MS','Arial'" text-anchor="start">Variable characters (20)</text>
      <text x="542" y="247" fill="#000000" font-size="10" font-family="'Arial Unicode MS','Arial'" text-anchor="start">Long variable characters (1000)</text>
      <text x="542" y="260" fill="#000000" font-size="10" font-family="'Arial Unicode MS','Arial'" text-anchor="start">Date</text>
      <text x="542" y="273" fill="#000000" font-size="10" font-family="'Arial Unicode MS','Arial'" text-anchor="start">Variable characters (255)</text>
      <text x="698" y="221" fill="#000000" font-size="10" font-family="'Arial Unicode MS','Arial'" text-anchor="start" text-decoration="underline">&lt;M&gt;</text>
      <line x1="440" x2="735" y1="280" y2="280" stroke="#808040" stroke-width="1"/>
      <text x="445" y="290" fill="#000000" font-size="10" font-family="'Arial Unicode MS','Arial'" text-anchor="start">Identifier_1</text>
      <text x="507" y="290" fill="#000000" font-size="10" font-family="'Arial Unicode MS','Arial'" text-anchor="start">&lt;pi&gt;</text>
   </a>
   <a target="_parent" xlink:href="Full45.htm#44">
      <defs>
         <linearGradient id="Gradient2" x1="0%" x2="100%" y1="0%" y2="100%" gradientUnits="objectBoundingBox">
            <stop offset="5%" stop-color="#ffffff"/>
            <stop offset="95%" stop-color="#e9ca83"/>
         </linearGradient>
      </defs>
      <rect x="614" y="426" fill="url(#Gradient2)" width="262" height="87" stroke="#808040" stroke-width="1"/>
      <text x="745" y="437" fill="#000000" font-size="10" font-family="'Arial Unicode MS','Arial'" text-anchor="middle">客户</text>
      <line x1="614" x2="876" y1="443" y2="443" stroke="#808040" stroke-width="1"/>
      <text x="619" y="453" fill="#000000" font-size="10" font-family="'Arial Unicode MS','Arial'" text-anchor="start" text-decoration="underline">客户身份证号</text>
      <text x="619" y="466" fill="#000000" font-size="10" font-family="'Arial Unicode MS','Arial'" text-anchor="start">客户姓名</text>
      <text x="619" y="479" fill="#000000" font-size="10" font-family="'Arial Unicode MS','Arial'" text-anchor="start">城市</text>
      <text x="619" y="492" fill="#000000" font-size="10" font-family="'Arial Unicode MS','Arial'" text-anchor="start">街道</text>
      <text x="687" y="453" fill="#000000" font-size="10" font-family="'Arial Unicode MS','Arial'" text-anchor="start" text-decoration="underline">&lt;pi&gt;</text>
      <text x="716" y="453" fill="#000000" font-size="10" font-family="'Arial Unicode MS','Arial'" text-anchor="start" text-decoration="underline">Variable characters (20)</text>
      <text x="716" y="466" fill="#000000" font-size="10" font-family="'Arial Unicode MS','Arial'" text-anchor="start">Variable characters (255)</text>
      <text x="716" y="479" fill="#000000" font-size="10" font-family="'Arial Unicode MS','Arial'" text-anchor="start">Variable characters (255)</text>
      <text x="716" y="492" fill="#000000" font-size="10" font-family="'Arial Unicode MS','Arial'" text-anchor="start">Variable characters (255)</text>
      <text x="841" y="453" fill="#000000" font-size="10" font-family="'Arial Unicode MS','Arial'" text-anchor="start" text-decoration="underline">&lt;M&gt;</text>
      <line x1="614" x2="876" y1="499" y2="499" stroke="#808040" stroke-width="1"/>
      <text x="619" y="509" fill="#000000" font-size="10" font-family="'Arial Unicode MS','Arial'" text-anchor="start">Identifier_1</text>
      <text x="681" y="509" fill="#000000" font-size="10" font-family="'Arial Unicode MS','Arial'" text-anchor="start">&lt;pi&gt;</text>
   </a>
   <a target="_parent" xlink:href="Full56.htm#98">
      <defs>
         <linearGradient id="Gradient3" x1="0%" x2="100%" y1="0%" y2="100%" gradientUnits="objectBoundingBox">
            <stop offset="5%" stop-color="#ffffff"/>
            <stop offset="95%" stop-color="#e9ca83"/>
         </linearGradient>
      </defs>
      <rect x="412" y="681" fill="url(#Gradient3)" width="240" height="74" stroke="#808040" stroke-width="1"/>
      <text x="532" y="692" fill="#000000" font-size="10" font-family="'Arial Unicode MS','Arial'" text-anchor="middle">支行</text>
      <line x1="412" x2="652" y1="698" y2="698" stroke="#808040" stroke-width="1"/>
      <text x="417" y="708" fill="#000000" font-size="10" font-family="'Arial Unicode MS','Arial'" text-anchor="start" text-decoration="underline">支行名称</text>
      <text x="417" y="721" fill="#000000" font-size="10" font-family="'Arial Unicode MS','Arial'" text-anchor="start">资产</text>
      <text x="417" y="734" fill="#000000" font-size="10" font-family="'Arial Unicode MS','Arial'" text-anchor="start">城市</text>
      <text x="465" y="708" fill="#000000" font-size="10" font-family="'Arial Unicode MS','Arial'" text-anchor="start" text-decoration="underline">&lt;pi&gt;</text>
      <text x="494" y="708" fill="#000000" font-size="10" font-family="'Arial Unicode MS','Arial'" text-anchor="start" text-decoration="underline">Variable characters (255)</text>
      <text x="494" y="721" fill="#000000" font-size="10" font-family="'Arial Unicode MS','Arial'" text-anchor="start">Money</text>
      <text x="494" y="734" fill="#000000" font-size="10" font-family="'Arial Unicode MS','Arial'" text-anchor="start">Variable characters (255)</text>
      <text x="619" y="708" fill="#000000" font-size="10" font-family="'Arial Unicode MS','Arial'" text-anchor="start" text-decoration="underline">&lt;M&gt;</text>
      <line x1="412" x2="652" y1="741" y2="741" stroke="#808040" stroke-width="1"/>
      <text x="417" y="751" fill="#000000" font-size="10" font-family="'Arial Unicode MS','Arial'" text-anchor="start">Identifier_1</text>
      <text x="479" y="751" fill="#000000" font-size="10" font-family="'Arial Unicode MS','Arial'" text-anchor="start">&lt;pi&gt;</text>
   </a>
   <a target="_parent" xlink:href="Full70.htm#170">
      <defs>
         <linearGradient id="Gradient4" x1="0%" x2="100%" y1="0%" y2="100%" gradientUnits="objectBoundingBox">
            <stop offset="5%" stop-color="#ffffff"/>
            <stop offset="95%" stop-color="#e9ca83"/>
         </linearGradient>
      </defs>
      <rect x="359" y="19" fill="url(#Gradient4)" width="160" height="49" stroke="#808040" stroke-width="1"/>
      <text x="439" y="30" fill="#000000" font-size="10" font-family="'Arial Unicode MS','Arial'" text-anchor="middle">部门经理</text>
      <line x1="359" x2="519" y1="36" y2="36" stroke="#808040" stroke-width="1"/>
      <text x="364" y="46" fill="#000000" font-size="10" font-family="'Arial Unicode MS','Arial'" text-anchor="start">部门</text>
      <text x="392" y="46" fill="#000000" font-size="10" font-family="'Arial Unicode MS','Arial'" text-anchor="start">Variable characters (255)</text>
      <line x1="359" x2="519" y1="53" y2="53" stroke="#808040" stroke-width="1"/>
   </a>
   <a target="_parent" xlink:href="Full60.htm#118">
      <defs>
         <linearGradient id="Gradient5" x1="0%" x2="100%" y1="0%" y2="100%" gradientUnits="objectBoundingBox">
            <stop offset="5%" stop-color="#ffffff"/>
            <stop offset="95%" stop-color="#e9ca83"/>
         </linearGradient>
      </defs>
      <rect x="685" y="15" fill="url(#Gradient5)" width="225" height="53" stroke="#808040" stroke-width="1"/>
      <text x="797" y="26" fill="#000000" font-size="10" font-family="'Arial Unicode MS','Arial'" text-anchor="middle">普通员工</text>
      <line x1="685" x2="910" y1="32" y2="32" stroke="#808040" stroke-width="1"/>
      <text x="690" y="42" fill="#000000" font-size="10" font-family="'Arial Unicode MS','Arial'" text-anchor="start">部门经理身份证号</text>
      <text x="778" y="42" fill="#000000" font-size="10" font-family="'Arial Unicode MS','Arial'" text-anchor="start">Variable characters (20)</text>
      <line x1="685" x2="910" y1="49" y2="49" stroke="#808040" stroke-width="1"/>
   </a>
   <a target="_parent" xlink:href="Full76.htm#16">
      <defs>
         <linearGradient id="Gradient6" x1="0%" x2="100%" y1="0%" y2="100%" gradientUnits="objectBoundingBox">
            <stop offset="5%" stop-color="#ffffff"/>
            <stop offset="95%" stop-color="#e9ca83"/>
         </linearGradient>
      </defs>
      <defs>
         <linearGradient id="Gradient7" x1="0%" x2="100%" y1="0%" y2="100%" gradientUnits="objectBoundingBox">
            <stop offset="5%" stop-color="#ffffff"/>
            <stop offset="95%" stop-color="#e9ca83"/>
         </linearGradient>
      </defs>
      <path d="M466,128 A10,13 0 0,0 445,128 L455,128 Z" fill="url(#Gradient7)" stroke="#800000" stroke-width="1"/>
   </a>
   <a target="_parent" xlink:href="Full75.htm#12">
      <defs>
         <linearGradient id="Gradient8" x1="0%" x2="100%" y1="0%" y2="100%" gradientUnits="objectBoundingBox">
            <stop offset="5%" stop-color="#ffffff"/>
            <stop offset="95%" stop-color="#e9ca83"/>
         </linearGradient>
      </defs>
      <defs>
         <linearGradient id="Gradient9" x1="0%" x2="100%" y1="0%" y2="100%" gradientUnits="objectBoundingBox">
            <stop offset="5%" stop-color="#ffffff"/>
            <stop offset="95%" stop-color="#e9ca83"/>
         </linearGradient>
      </defs>
      <path d="M667,128 A10,13 0 0,0 646,128 L656,128 Z" fill="url(#Gradient9)" stroke="#800000" stroke-width="1"/>
   </a>
   <a target="_parent" xlink:href="Full62.htm#129">
      <defs>
         <linearGradient id="Gradient10" x1="0%" x2="100%" y1="0%" y2="100%" gradientUnits="objectBoundingBox">
            <stop offset="5%" stop-color="#ffffff"/>
            <stop offset="95%" stop-color="#e9ca83"/>
         </linearGradient>
      </defs>
      <rect x="788" y="638" fill="url(#Gradient10)" width="257" height="74" stroke="#808040" stroke-width="1"/>
      <text x="916" y="649" fill="#000000" font-size="10" font-family="'Arial Unicode MS','Arial'" text-anchor="middle">账户</text>
      <line x1="788" x2="1045" y1="655" y2="655" stroke="#808040" stroke-width="1"/>
      <text x="793" y="665" fill="#000000" font-size="10" font-family="'Arial Unicode MS','Arial'" text-anchor="start" text-decoration="underline">账户号码</text>
      <text x="793" y="678" fill="#000000" font-size="10" font-family="'Arial Unicode MS','Arial'" text-anchor="start">余额</text>
      <text x="793" y="691" fill="#000000" font-size="10" font-family="'Arial Unicode MS','Arial'" text-anchor="start">最近访问日期</text>
      <text x="861" y="665" fill="#000000" font-size="10" font-family="'Arial Unicode MS','Arial'" text-anchor="start" text-decoration="underline">&lt;pi&gt;</text>
      <text x="890" y="665" fill="#000000" font-size="10" font-family="'Arial Unicode MS','Arial'" text-anchor="start" text-decoration="underline">Variable characters (50)</text>
      <text x="890" y="678" fill="#000000" font-size="10" font-family="'Arial Unicode MS','Arial'" text-anchor="start">Money</text>
      <text x="890" y="691" fill="#000000" font-size="10" font-family="'Arial Unicode MS','Arial'" text-anchor="start">Date</text>
      <text x="1009" y="665" fill="#000000" font-size="10" font-family="'Arial Unicode MS','Arial'" text-anchor="start" text-decoration="underline">&lt;M&gt;</text>
      <line x1="788" x2="1045" y1="698" y2="698" stroke="#808040" stroke-width="1"/>
      <text x="793" y="708" fill="#000000" font-size="10" font-family="'Arial Unicode MS','Arial'" text-anchor="start">Identifier_1</text>
      <text x="855" y="708" fill="#000000" font-size="10" font-family="'Arial Unicode MS','Arial'" text-anchor="start">&lt;pi&gt;</text>
   </a>
   <a target="_parent" xlink:href="Full37.htm#5">
      <defs>
         <linearGradient id="Gradient11" x1="0%" x2="100%" y1="0%" y2="100%" gradientUnits="objectBoundingBox">
            <stop offset="5%" stop-color="#ffffff"/>
            <stop offset="95%" stop-color="#e9ca83"/>
         </linearGradient>
      </defs>
      <rect x="756" y="852" fill="url(#Gradient11)" width="66" height="54" stroke="#808040" stroke-width="1"/>
      <text x="789" y="863" fill="#000000" font-size="10" font-family="'Arial Unicode MS','Arial'" text-anchor="middle">储蓄账户</text>
      <line x1="756" x2="822" y1="869" y2="869" stroke="#808040" stroke-width="1"/>
      <text x="760" y="879" fill="#000000" font-size="10" font-family="'Arial Unicode MS','Arial'" text-anchor="start">利率</text>
      <text x="788" y="879" fill="#000000" font-size="10" font-family="'Arial Unicode MS','Arial'" text-anchor="start">Float</text>
      <line x1="756" x2="822" y1="886" y2="886" stroke="#808040" stroke-width="1"/>
   </a>
   <a target="_parent" xlink:href="Full54.htm#88">
      <defs>
         <linearGradient id="Gradient12" x1="0%" x2="100%" y1="0%" y2="100%" gradientUnits="objectBoundingBox">
            <stop offset="5%" stop-color="#ffffff"/>
            <stop offset="95%" stop-color="#e9ca83"/>
         </linearGradient>
      </defs>
      <rect x="1031" y="851" fill="url(#Gradient12)" width="97" height="54" stroke="#808040" stroke-width="1"/>
      <text x="1079" y="862" fill="#000000" font-size="10" font-family="'Arial Unicode MS','Arial'" text-anchor="middle">支票账户</text>
      <line x1="1031" x2="1128" y1="868" y2="868" stroke="#808040" stroke-width="1"/>
      <text x="1036" y="878" fill="#000000" font-size="10" font-family="'Arial Unicode MS','Arial'" text-anchor="start">透支额度</text>
      <text x="1084" y="878" fill="#000000" font-size="10" font-family="'Arial Unicode MS','Arial'" text-anchor="start">Money</text>
      <line x1="1031" x2="1128" y1="885" y2="885" stroke="#808040" stroke-width="1"/>
   </a>
   <a target="_parent" xlink:href="Full73.htm#4">
      <defs>
         <linearGradient id="Gradient13" x1="0%" x2="100%" y1="0%" y2="100%" gradientUnits="objectBoundingBox">
            <stop offset="5%" stop-color="#ffffff"/>
            <stop offset="95%" stop-color="#e9ca83"/>
         </linearGradient>
      </defs>
      <defs>
         <linearGradient id="Gradient14" x1="0%" x2="100%" y1="0%" y2="100%" gradientUnits="objectBoundingBox">
            <stop offset="5%" stop-color="#ffffff"/>
            <stop offset="95%" stop-color="#e9ca83"/>
         </linearGradient>
      </defs>
      <path d="M806,793 A10,13 0 0,0 785,793 L795,793 Z" fill="url(#Gradient14)" stroke="#800000" stroke-width="1"/>
   </a>
   <a target="_parent" xlink:href="Full74.htm#8">
      <defs>
         <linearGradient id="Gradient15" x1="0%" x2="100%" y1="0%" y2="100%" gradientUnits="objectBoundingBox">
            <stop offset="5%" stop-color="#ffffff"/>
            <stop offset="95%" stop-color="#e9ca83"/>
         </linearGradient>
      </defs>
      <defs>
         <linearGradient id="Gradient16" x1="0%" x2="100%" y1="0%" y2="100%" gradientUnits="objectBoundingBox">
            <stop offset="5%" stop-color="#ffffff"/>
            <stop offset="95%" stop-color="#e9ca83"/>
         </linearGradient>
      </defs>
      <path d="M1047,778 A10,13 0 0,0 1026,778 L1036,778 Z" fill="url(#Gradient16)" stroke="#800000" stroke-width="1"/>
   </a>
   <a target="_parent" xlink:href="Full66.htm#150">
      <defs>
         <linearGradient id="Gradient17" x1="0%" x2="100%" y1="0%" y2="100%" gradientUnits="objectBoundingBox">
            <stop offset="5%" stop-color="#ffffff"/>
            <stop offset="95%" stop-color="#e9ca83"/>
         </linearGradient>
      </defs>
      <rect x="15" y="394" fill="url(#Gradient17)" width="234" height="75" stroke="#808040" stroke-width="1"/>
      <text x="132" y="405" fill="#000000" font-size="10" font-family="'Arial Unicode MS','Arial'" text-anchor="middle">贷款</text>
      <line x1="15" x2="249" y1="411" y2="411" stroke="#808040" stroke-width="1"/>
      <text x="20" y="421" fill="#000000" font-size="10" font-family="'Arial Unicode MS','Arial'" text-anchor="start" text-decoration="underline">贷款号</text>
      <text x="20" y="434" fill="#000000" font-size="10" font-family="'Arial Unicode MS','Arial'" text-anchor="start">金额</text>
      <text x="20" y="447" fill="#000000" font-size="10" font-family="'Arial Unicode MS','Arial'" text-anchor="start">逐次支付</text>
      <text x="68" y="421" fill="#000000" font-size="10" font-family="'Arial Unicode MS','Arial'" text-anchor="start" text-decoration="underline">&lt;pi&gt;</text>
      <text x="97" y="421" fill="#000000" font-size="10" font-family="'Arial Unicode MS','Arial'" text-anchor="start" text-decoration="underline">Variable characters (60)</text>
      <text x="97" y="434" fill="#000000" font-size="10" font-family="'Arial Unicode MS','Arial'" text-anchor="start">Money</text>
      <text x="97" y="447" fill="#000000" font-size="10" font-family="'Arial Unicode MS','Arial'" text-anchor="start">Integer</text>
      <text x="216" y="421" fill="#000000" font-size="10" font-family="'Arial Unicode MS','Arial'" text-anchor="start" text-decoration="underline">&lt;M&gt;</text>
      <line x1="15" x2="249" y1="454" y2="454" stroke="#808040" stroke-width="1"/>
      <text x="20" y="464" fill="#000000" font-size="10" font-family="'Arial Unicode MS','Arial'" text-anchor="start">Identifier_1</text>
      <text x="82" y="464" fill="#000000" font-size="10" font-family="'Arial Unicode MS','Arial'" text-anchor="start">&lt;pi&gt;</text>
   </a>
   <a target="_parent" xlink:href="Full50.htm#68">
      <defs>
         <linearGradient id="Gradient18" x1="0%" x2="100%" y1="0%" y2="100%" gradientUnits="objectBoundingBox">
            <stop offset="5%" stop-color="#ffffff"/>
            <stop offset="95%" stop-color="#e9ca83"/>
         </linearGradient>
      </defs>
      <rect x="18" y="626" fill="url(#Gradient18)" width="234" height="74" stroke="#808040" stroke-width="1"/>
      <text x="135" y="637" fill="#000000" font-size="10" font-family="'Arial Unicode MS','Arial'" text-anchor="middle">支付</text>
      <line x1="18" x2="252" y1="643" y2="643" stroke="#808040" stroke-width="1"/>
      <text x="23" y="653" fill="#000000" font-size="10" font-family="'Arial Unicode MS','Arial'" text-anchor="start" text-decoration="underline">支付号</text>
      <text x="23" y="666" fill="#000000" font-size="10" font-family="'Arial Unicode MS','Arial'" text-anchor="start">支付金额</text>
      <text x="23" y="679" fill="#000000" font-size="10" font-family="'Arial Unicode MS','Arial'" text-anchor="start">交易日期</text>
      <text x="71" y="653" fill="#000000" font-size="10" font-family="'Arial Unicode MS','Arial'" text-anchor="start" text-decoration="underline">&lt;pi&gt;</text>
      <text x="100" y="653" fill="#000000" font-size="10" font-family="'Arial Unicode MS','Arial'" text-anchor="start" text-decoration="underline">Variable characters (60)</text>
      <text x="100" y="666" fill="#000000" font-size="10" font-family="'Arial Unicode MS','Arial'" text-anchor="start">Money</text>
      <text x="100" y="679" fill="#000000" font-size="10" font-family="'Arial Unicode MS','Arial'" text-anchor="start">Date</text>
      <text x="219" y="653" fill="#000000" font-size="10" font-family="'Arial Unicode MS','Arial'" text-anchor="start" text-decoration="underline">&lt;M&gt;</text>
      <line x1="18" x2="252" y1="686" y2="686" stroke="#808040" stroke-width="1"/>
      <text x="23" y="696" fill="#000000" font-size="10" font-family="'Arial Unicode MS','Arial'" text-anchor="start">Identifier_1</text>
      <text x="85" y="696" fill="#000000" font-size="10" font-family="'Arial Unicode MS','Arial'" text-anchor="start">&lt;pi&gt;</text>
   </a>
   <a target="_parent" xlink:href="Full5.htm#4">
      <defs>
         <linearGradient id="Gradient19" x1="0%" x2="100%" y1="0%" y2="100%" gradientUnits="objectBoundingBox">
            <stop offset="5%" stop-color="#ffffff"/>
            <stop offset="95%" stop-color="#d0d0ff"/>
         </linearGradient>
      </defs>
      <rect x="770" y="336" rx="15" ry="20" fill="url(#Gradient19)" width="117" height="40" stroke="#8080ff" stroke-width="1"/>
      <text x="828" y="347" fill="#000000" font-size="10" font-family="'Arial Unicode MS','Arial'" text-anchor="middle">负责</text>
      <line x1="771" x2="887" y1="353" y2="353" stroke="#8080ff" stroke-width="1"/>
      <text x="790" y="363" fill="#000000" font-size="10" font-family="'Arial Unicode MS','Arial'" text-anchor="start">负责类型</text>
      <text x="838" y="363" fill="#000000" font-size="10" font-family="'Arial Unicode MS','Arial'" text-anchor="start">Byte</text>
   </a>
</svg>
